<svg width="253" height="42" viewBox="0 0 253 42" fill="none" xmlns="http://www.w3.org/2000/svg">
<rect y="0.0115356" width="41.0038" height="41.0038" fill="#0066CA"/>
<path d="M60.292 27.8942L58.7175 22.9869H51.1596L49.5851 27.8942H47.9843L53.9938 9.91812H55.962L61.9453 27.8942H60.292ZM51.6058 21.6485H58.2976L54.9648 11.204L51.6058 21.6485Z" fill="black" fill-opacity="0.87"/>
<path d="M67.9923 28.1829C67.24 28.1829 66.6452 27.9642 66.2078 27.5268C65.788 27.0894 65.578 26.4421 65.578 25.5849V8.57975L67.1001 8.39606V25.5324C67.1001 26.4246 67.4675 26.8708 68.2023 26.8708C68.5697 26.8708 68.8846 26.8095 69.147 26.6871L69.5669 27.8155C69.077 28.0604 68.5522 28.1829 67.9923 28.1829Z" fill="black" fill-opacity="0.87"/>
<path d="M83.2995 20.5201C83.2995 20.905 83.282 21.2724 83.247 21.6223H74.0884C74.1758 23.4067 74.5957 24.7364 75.348 25.6111C76.1178 26.4684 77.1237 26.897 78.3659 26.897C79.0832 26.897 79.713 26.792 80.2553 26.5821C80.8152 26.3546 81.4188 26.0047 82.0661 25.5324L82.7746 26.5034C82.0923 27.0632 81.3925 27.4831 80.6752 27.763C79.9579 28.0429 79.1619 28.1829 78.2872 28.1829C76.4677 28.1829 75.0418 27.5618 74.0096 26.3197C72.9774 25.0775 72.4613 23.3543 72.4613 21.1499C72.4613 19.6978 72.68 18.4294 73.1174 17.3447C73.5723 16.2426 74.2108 15.394 75.0331 14.7992C75.8729 14.1869 76.8438 13.8807 77.946 13.8807C79.6955 13.8807 81.0251 14.4756 81.9349 15.6652C82.8446 16.8374 83.2995 18.4557 83.2995 20.5201ZM81.8036 20.0477C81.8036 18.5082 81.48 17.3097 80.8327 16.4525C80.2029 15.5777 79.2581 15.1404 77.9985 15.1404C76.8613 15.1404 75.9428 15.5777 75.243 16.4525C74.5432 17.3272 74.1583 18.6569 74.0884 20.4413H81.8036V20.0477Z" fill="black" fill-opacity="0.87"/>
<path d="M91.5168 13.8807C92.3741 13.8807 93.1526 14.0119 93.8524 14.2744C94.5522 14.5193 95.2345 14.8954 95.8993 15.4028L95.1908 16.4C94.561 15.9626 93.9661 15.6477 93.4063 15.4553C92.8465 15.2453 92.2341 15.1404 91.5693 15.1404C90.6596 15.1404 89.9248 15.3503 89.365 15.7702C88.8051 16.1901 88.5252 16.7499 88.5252 17.4497C88.5252 18.1145 88.7614 18.6306 89.2337 18.998C89.7236 19.3654 90.5984 19.7153 91.858 20.0477C93.415 20.4501 94.5347 20.9574 95.217 21.5698C95.9168 22.1821 96.2667 23.0568 96.2667 24.194C96.2667 25.4187 95.7944 26.3896 94.8496 27.1069C93.9049 27.8242 92.724 28.1829 91.3069 28.1829C90.2572 28.1829 89.3387 28.0342 88.5514 27.7368C87.7642 27.4218 87.0469 26.9845 86.3996 26.4246L87.2393 25.4537C87.8516 25.9435 88.4727 26.3109 89.1025 26.5558C89.7498 26.7833 90.4759 26.897 91.2807 26.897C92.2954 26.897 93.1089 26.6696 93.7212 26.2147C94.351 25.7423 94.6659 25.095 94.6659 24.2727C94.6659 23.7129 94.561 23.258 94.351 22.9081C94.1411 22.5582 93.7824 22.2608 93.2751 22.0159C92.7677 21.7535 92.0242 21.491 91.0445 21.2286C89.5924 20.8437 88.5427 20.3626 87.8954 19.7853C87.2656 19.208 86.9506 18.4382 86.9506 17.4759C86.9506 16.7936 87.1518 16.1813 87.5542 15.639C87.9566 15.0791 88.499 14.6505 89.1813 14.3531C89.8811 14.0382 90.6596 13.8807 91.5168 13.8807Z" fill="black" fill-opacity="0.87"/>
<path d="M103.882 13.8807C104.739 13.8807 105.517 14.0119 106.217 14.2744C106.917 14.5193 107.599 14.8954 108.264 15.4028L107.555 16.4C106.926 15.9626 106.331 15.6477 105.771 15.4553C105.211 15.2453 104.599 15.1404 103.934 15.1404C103.024 15.1404 102.29 15.3503 101.73 15.7702C101.17 16.1901 100.89 16.7499 100.89 17.4497C100.89 18.1145 101.126 18.6306 101.598 18.998C102.088 19.3654 102.963 19.7153 104.223 20.0477C105.78 20.4501 106.899 20.9574 107.582 21.5698C108.282 22.1821 108.631 23.0568 108.631 24.194C108.631 25.4187 108.159 26.3896 107.214 27.1069C106.27 27.8242 105.089 28.1829 103.672 28.1829C102.622 28.1829 101.703 28.0342 100.916 27.7368C100.129 27.4218 99.4116 26.9845 98.7643 26.4246L99.604 25.4537C100.216 25.9435 100.837 26.3109 101.467 26.5558C102.115 26.7833 102.841 26.897 103.645 26.897C104.66 26.897 105.474 26.6696 106.086 26.2147C106.716 25.7423 107.031 25.095 107.031 24.2727C107.031 23.7129 106.926 23.258 106.716 22.9081C106.506 22.5582 106.147 22.2608 105.64 22.0159C105.132 21.7535 104.389 21.491 103.409 21.2286C101.957 20.8437 100.907 20.3626 100.26 19.7853C99.6303 19.208 99.3154 18.4382 99.3154 17.4759C99.3154 16.7936 99.5166 16.1813 99.9189 15.639C100.321 15.0791 100.864 14.6505 101.546 14.3531C102.246 14.0382 103.024 13.8807 103.882 13.8807Z" fill="black" fill-opacity="0.87"/>
<path d="M121.493 24.8501C121.493 25.5674 121.58 26.0835 121.755 26.3984C121.948 26.7133 122.245 26.9495 122.648 27.1069L122.306 28.1829C121.677 28.0604 121.187 27.8242 120.837 27.4743C120.504 27.1244 120.286 26.5908 120.181 25.8735C119.236 27.4131 117.81 28.1829 115.903 28.1829C114.591 28.1829 113.55 27.8155 112.78 27.0807C112.028 26.3284 111.652 25.3312 111.652 24.089C111.652 22.672 112.151 21.5785 113.148 20.8087C114.163 20.039 115.562 19.6541 117.347 19.6541H119.971V18.3157C119.971 17.2135 119.726 16.4175 119.236 15.9276C118.746 15.4203 117.933 15.1666 116.795 15.1666C115.746 15.1666 114.504 15.429 113.069 15.9539L112.675 14.7992C114.215 14.1869 115.658 13.8807 117.005 13.8807C119.997 13.8807 121.493 15.3328 121.493 18.237V24.8501ZM116.166 26.9495C117.81 26.9495 119.079 26.1447 119.971 24.5352V20.7563H117.583C116.183 20.7563 115.116 21.0274 114.381 21.5698C113.646 22.1121 113.279 22.9256 113.279 24.0103C113.279 24.955 113.533 25.6811 114.04 26.1884C114.547 26.6958 115.256 26.9495 116.166 26.9495Z" fill="black" fill-opacity="0.87"/>
<path d="M133.62 13.8807C134.863 13.8807 135.807 14.2481 136.455 14.9829C137.119 15.7177 137.452 16.7499 137.452 18.0795V27.8942H135.93V18.2895C135.93 17.1873 135.711 16.3825 135.274 15.8752C134.836 15.3678 134.189 15.1141 133.332 15.1141C132.457 15.1141 131.678 15.3591 130.996 15.8489C130.331 16.3213 129.693 17.0211 129.08 17.9483V27.8942H127.558V14.1694H128.871L129.028 16.505C129.588 15.6827 130.253 15.0441 131.022 14.5893C131.792 14.1169 132.658 13.8807 133.62 13.8807Z" fill="black" fill-opacity="0.87"/>
<path d="M153.197 8.57975V27.8942H151.885L151.701 25.7948C150.756 27.3869 149.383 28.1829 147.581 28.1829C145.989 28.1829 144.729 27.5531 143.802 26.2934C142.892 25.0163 142.437 23.2843 142.437 21.0974C142.437 19.6803 142.647 18.4294 143.067 17.3447C143.505 16.26 144.126 15.4115 144.93 14.7992C145.753 14.1869 146.715 13.8807 147.817 13.8807C149.374 13.8807 150.66 14.5018 151.675 15.7439V8.39606L153.197 8.57975ZM147.817 26.9232C148.692 26.9232 149.427 26.7133 150.022 26.2934C150.634 25.8735 151.185 25.235 151.675 24.3777V17.2135C150.695 15.8314 149.497 15.1404 148.08 15.1404C146.837 15.1404 145.849 15.6565 145.114 16.6887C144.397 17.7209 144.047 19.1817 144.064 21.0712C144.064 22.9606 144.397 24.4127 145.062 25.4274C145.727 26.4246 146.645 26.9232 147.817 26.9232Z" fill="black" fill-opacity="0.87"/>
<path d="M164.611 13.8807C165.154 13.8807 165.609 13.9332 165.976 14.0382L165.687 15.4815C165.302 15.3766 164.9 15.3241 164.48 15.3241C163.553 15.3241 162.801 15.6652 162.223 16.3475C161.663 17.0123 161.191 18.062 160.806 19.4966V27.8942H159.284V14.1694H160.596L160.727 17.2398C161.095 16.1026 161.593 15.2628 162.223 14.7205C162.871 14.1607 163.667 13.8807 164.611 13.8807Z" fill="black" fill-opacity="0.87"/>
<path d="M173.528 13.8807C175.347 13.8807 176.764 14.5106 177.779 15.7702C178.811 17.0123 179.327 18.7531 179.327 20.9924C179.327 23.2143 178.803 24.9725 177.753 26.2672C176.721 27.5443 175.304 28.1829 173.502 28.1829C171.682 28.1829 170.256 27.5531 169.224 26.2934C168.209 25.0163 167.702 23.2668 167.702 21.0449C167.702 19.5928 167.938 18.3245 168.411 17.2398C168.883 16.1551 169.556 15.3241 170.431 14.7467C171.306 14.1694 172.338 13.8807 173.528 13.8807ZM173.528 15.1666C172.198 15.1666 171.166 15.6652 170.431 16.6624C169.696 17.6596 169.329 19.1205 169.329 21.0449C169.329 22.9519 169.688 24.404 170.405 25.4012C171.14 26.3984 172.172 26.897 173.502 26.897C174.831 26.897 175.863 26.3984 176.598 25.4012C177.35 24.404 177.727 22.9344 177.727 20.9924C177.727 19.0855 177.359 17.6422 176.624 16.6624C175.907 15.6652 174.875 15.1666 173.528 15.1666Z" fill="black" fill-opacity="0.87"/>
<path d="M8.28601 14.4121V27.8942H7.1051V14.4121H8.28601Z" fill="white"/>
<path d="M17.1079 17.3841C18.0395 17.3841 18.7481 17.6596 19.2336 18.2107C19.7322 18.7618 19.9815 19.536 19.9815 20.5332V27.8942H18.8399V20.6906C18.8399 19.864 18.6759 19.2604 18.3479 18.8799C18.0199 18.4994 17.5344 18.3091 16.8914 18.3091C16.2354 18.3091 15.6515 18.4928 15.1398 18.8602C14.6411 19.2145 14.1622 19.7394 13.703 20.4348V27.8942H12.5614V17.6006H13.5455L13.6636 19.3523C14.0835 18.7356 14.5821 18.2567 15.1594 17.9155C15.7368 17.5612 16.3863 17.3841 17.1079 17.3841Z" fill="white"/>
<path d="M31.7116 17.8171C31.0817 17.9877 30.1304 18.0861 28.8577 18.1123C30.0255 18.6634 30.6094 19.595 30.6094 20.9072C30.6094 21.9175 30.2748 22.7376 29.6056 23.3674C28.9364 23.9841 28.0311 24.2924 26.8895 24.2924C26.3778 24.2924 25.9317 24.2268 25.5511 24.0956C25.3018 24.2399 25.105 24.4171 24.9607 24.627C24.8295 24.8238 24.7639 25.0403 24.7639 25.2765C24.7639 25.9851 25.3084 26.3393 26.3975 26.3393H28.0704C29.0808 26.3393 29.8811 26.5886 30.4716 27.0873C31.0752 27.5727 31.377 28.2026 31.377 28.9767C31.377 29.9214 31.003 30.6497 30.2551 31.1614C29.5072 31.6731 28.3919 31.929 26.9092 31.929C25.374 31.929 24.2718 31.6928 23.6026 31.2204C22.9466 30.7612 22.6185 30.0133 22.6185 28.9767H23.6814C23.6945 29.4753 23.7995 29.8689 23.9963 30.1576C24.1931 30.4463 24.5211 30.6562 24.9804 30.7874C25.4396 30.9186 26.0826 30.9843 26.9092 30.9843C28.0639 30.9843 28.9036 30.8137 29.4285 30.4725C29.9533 30.1445 30.2157 29.6656 30.2157 29.0358C30.2157 28.4847 30.0124 28.0648 29.6056 27.7761C29.1988 27.4743 28.6281 27.3234 27.8933 27.3234H26.2203C25.4068 27.3234 24.777 27.1529 24.3309 26.8117C23.8979 26.4706 23.6814 26.0376 23.6814 25.5127C23.6814 25.1716 23.7798 24.8501 23.9766 24.5483C24.1734 24.2465 24.449 23.9841 24.8032 23.761C24.2128 23.4592 23.7732 23.0722 23.4845 22.5998C23.209 22.1274 23.0712 21.5501 23.0712 20.8678C23.0712 19.8312 23.4189 18.9915 24.1144 18.3485C24.8098 17.7056 25.7217 17.3841 26.8501 17.3841C28.0967 17.3972 29.002 17.3513 29.5662 17.2463C30.1436 17.1414 30.7406 16.9642 31.3573 16.7149L31.7116 17.8171ZM26.8501 18.2698C25.9973 18.2698 25.3478 18.506 24.9016 18.9783C24.4686 19.4507 24.2521 20.0805 24.2521 20.8678C24.2521 21.6813 24.4818 22.3177 24.941 22.7769C25.4134 23.2362 26.0497 23.4658 26.8501 23.4658C27.6899 23.4658 28.3328 23.2427 28.779 22.7966C29.2251 22.3374 29.4481 21.701 29.4481 20.8875C29.4481 20.0608 29.2251 19.4179 28.779 18.9586C28.346 18.4994 27.703 18.2698 26.8501 18.2698Z" fill="white"/>
<path d="M33.8949 26.2409C34.1704 26.2409 34.3935 26.3328 34.564 26.5165C34.7477 26.6871 34.8396 26.9036 34.8396 27.166C34.8396 27.4415 34.7477 27.6711 34.564 27.8548C34.3935 28.0254 34.1704 28.1107 33.8949 28.1107C33.6324 28.1107 33.4094 28.0189 33.2257 27.8352C33.042 27.6515 32.9501 27.4284 32.9501 27.166C32.9501 26.9036 33.042 26.6871 33.2257 26.5165C33.4094 26.3328 33.6324 26.2409 33.8949 26.2409Z" fill="white"/>
<path d="M193.604 27.8942V9.70818H204.442L203.996 12.7785H197.907V17.6072H203.208V20.6775H197.907V27.8942H193.604Z" fill="black" fill-opacity="0.87"/>
<path d="M217.541 20.6513C217.541 21.2286 217.514 21.7272 217.462 22.1471H208.828C208.968 23.3193 209.301 24.1415 209.825 24.6139C210.35 25.0863 211.076 25.3224 212.004 25.3224C212.563 25.3224 213.106 25.2262 213.631 25.0338C214.155 24.8238 214.724 24.5089 215.336 24.089L217.042 26.3984C215.415 27.693 213.604 28.3403 211.61 28.3403C209.353 28.3403 207.621 27.6755 206.414 26.3459C205.207 25.0163 204.603 23.2318 204.603 20.9924C204.603 19.5753 204.857 18.307 205.364 17.1873C205.872 16.0501 206.615 15.1579 207.595 14.5106C208.575 13.8457 209.747 13.5133 211.111 13.5133C213.123 13.5133 214.698 14.1432 215.835 15.4028C216.972 16.6624 217.541 18.4119 217.541 20.6513ZM213.473 19.4704C213.438 17.336 212.686 16.2688 211.216 16.2688C210.499 16.2688 209.939 16.5312 209.537 17.0561C209.152 17.5809 208.916 18.4469 208.828 19.6541H213.473V19.4704Z" fill="black" fill-opacity="0.87"/>
<path d="M227.428 13.5658C227.935 13.5658 228.399 13.6271 228.819 13.7495L228.163 17.7646C227.638 17.6422 227.218 17.5809 226.903 17.5809C226.081 17.5809 225.451 17.8696 225.013 18.4469C224.594 19.0068 224.261 19.8553 224.016 20.9924V27.8942H219.87V13.9595H223.491L223.833 16.6624C224.147 15.7002 224.62 14.9479 225.25 14.4056C225.897 13.8457 226.623 13.5658 227.428 13.5658Z" fill="black" fill-opacity="0.87"/>
<path d="M237.961 13.5658C238.468 13.5658 238.932 13.6271 239.351 13.7495L238.695 17.7646C238.171 17.6422 237.751 17.5809 237.436 17.5809C236.614 17.5809 235.984 17.8696 235.546 18.4469C235.126 19.0068 234.794 19.8553 234.549 20.9924V27.8942H230.403V13.9595H234.024L234.365 16.6624C234.68 15.7002 235.153 14.9479 235.783 14.4056C236.43 13.8457 237.156 13.5658 237.961 13.5658Z" fill="black" fill-opacity="0.87"/>
<path d="M246.177 13.5133C248.311 13.5133 249.982 14.1694 251.189 15.4815C252.396 16.7761 253 18.5956 253 20.94C253 22.427 252.72 23.7304 252.16 24.8501C251.618 25.9523 250.831 26.8095 249.798 27.4218C248.784 28.0342 247.577 28.3403 246.177 28.3403C244.06 28.3403 242.389 27.693 241.165 26.3984C239.958 25.0863 239.354 23.258 239.354 20.9137C239.354 19.4266 239.625 18.132 240.167 17.0298C240.727 15.9101 241.515 15.0441 242.529 14.4318C243.561 13.8195 244.777 13.5133 246.177 13.5133ZM246.177 16.5575C245.337 16.5575 244.707 16.9161 244.288 17.6334C243.868 18.3332 243.658 19.4266 243.658 20.9137C243.658 22.4358 243.859 23.5467 244.261 24.2465C244.681 24.9463 245.32 25.2962 246.177 25.2962C247.017 25.2962 247.647 24.9463 248.066 24.2465C248.486 23.5292 248.696 22.427 248.696 20.94C248.696 19.4179 248.486 18.307 248.066 17.6072C247.664 16.9074 247.034 16.5575 246.177 16.5575Z" fill="black" fill-opacity="0.87"/>
</svg>
