<svg width="243" height="40" viewBox="0 0 243 40" fill="none" xmlns="http://www.w3.org/2000/svg">
<rect width="39.3831" height="39.3831" fill="#0066CA"/>
<path d="M57.909 26.7805L56.3967 22.0671H49.1376L47.6253 26.7805H46.0877L51.8597 9.51496H53.7501L59.4969 26.7805H57.909ZM49.5661 20.7817H55.9934L52.7923 10.75L49.5661 20.7817Z" fill="white"/>
<path d="M65.3049 27.0578C64.5824 27.0578 64.0111 26.8477 63.591 26.4276C63.1877 26.0076 62.9861 25.3858 62.9861 24.5625V8.22949L64.448 8.05305V24.5121C64.448 25.369 64.8008 25.7975 65.5066 25.7975C65.8595 25.7975 66.1619 25.7387 66.414 25.6211L66.8172 26.7049C66.3468 26.9402 65.8427 27.0578 65.3049 27.0578Z" fill="white"/>
<path d="M80.0071 19.6979C80.0071 20.0675 79.9902 20.4204 79.9566 20.7565H71.16C71.244 22.4704 71.6473 23.7475 72.3699 24.5877C73.1092 25.411 74.0754 25.8227 75.2685 25.8227C75.9574 25.8227 76.5623 25.7219 77.0833 25.5203C77.621 25.3018 78.2007 24.9657 78.8224 24.5121L79.5029 25.4446C78.8476 25.9824 78.1755 26.3856 77.4865 26.6545C76.7976 26.9234 76.033 27.0578 75.1929 27.0578C73.4453 27.0578 72.0758 26.4613 71.0844 25.2682C70.093 24.0752 69.5973 22.42 69.5973 20.3028C69.5973 18.9081 69.8073 17.6898 70.2274 16.648C70.6643 15.5894 71.2777 14.7744 72.0674 14.2031C72.874 13.615 73.8066 13.3209 74.8652 13.3209C76.5455 13.3209 77.8226 13.8923 78.6964 15.0349C79.5702 16.1607 80.0071 17.715 80.0071 19.6979ZM78.5704 19.2442C78.5704 17.7655 78.2595 16.6144 77.6378 15.7911C77.0328 14.9509 76.1255 14.5308 74.9156 14.5308C73.8234 14.5308 72.9412 14.9509 72.2691 15.7911C71.5969 16.6312 71.2272 17.9083 71.16 19.6222H78.5704V19.2442Z" fill="white"/>
<path d="M87.8996 13.3209C88.723 13.3209 89.4707 13.447 90.1429 13.699C90.815 13.9343 91.4704 14.2955 92.1089 14.7828L91.4284 15.7406C90.8234 15.3206 90.2521 15.0181 89.7144 14.8333C89.1767 14.6316 88.5886 14.5308 87.95 14.5308C87.0763 14.5308 86.3705 14.7324 85.8328 15.1357C85.2951 15.539 85.0262 16.0767 85.0262 16.7488C85.0262 17.3874 85.2531 17.8831 85.7068 18.236C86.1773 18.5888 87.0174 18.9249 88.2273 19.2442C89.7228 19.6306 90.7982 20.1179 91.4536 20.7061C92.1257 21.2942 92.4618 22.1344 92.4618 23.2266C92.4618 24.4028 92.0081 25.3354 91.1007 26.0244C90.1933 26.7133 89.0591 27.0578 87.698 27.0578C86.6898 27.0578 85.8076 26.9149 85.0514 26.6293C84.2953 26.3268 83.6063 25.9067 82.9846 25.369L83.7912 24.4364C84.3793 24.9069 84.9758 25.2598 85.5807 25.4951C86.2025 25.7135 86.8998 25.8227 87.6728 25.8227C88.6474 25.8227 89.4287 25.6043 90.0169 25.1674C90.6218 24.7137 90.9243 24.092 90.9243 23.3022C90.9243 22.7645 90.8234 22.3276 90.6218 21.9915C90.4202 21.6555 90.0757 21.3698 89.5884 21.1346C89.1011 20.8825 88.3869 20.6305 87.4459 20.3784C86.0512 20.0087 85.043 19.5466 84.4213 18.9921C83.8164 18.4376 83.5139 17.6982 83.5139 16.7741C83.5139 16.1187 83.7072 15.5306 84.0936 15.0097C84.4801 14.472 85.001 14.0603 85.6564 13.7746C86.3285 13.4722 87.0763 13.3209 87.8996 13.3209Z" fill="white"/>
<path d="M99.7756 13.3209C100.599 13.3209 101.347 13.447 102.019 13.699C102.691 13.9343 103.346 14.2955 103.985 14.7828L103.304 15.7406C102.699 15.3206 102.128 15.0181 101.59 14.8333C101.053 14.6316 100.465 14.5308 99.826 14.5308C98.9522 14.5308 98.2465 14.7324 97.7088 15.1357C97.1711 15.539 96.9022 16.0767 96.9022 16.7488C96.9022 17.3874 97.1291 17.8831 97.5828 18.236C98.0533 18.5888 98.8934 18.9249 100.103 19.2442C101.599 19.6306 102.674 20.1179 103.33 20.7061C104.002 21.2942 104.338 22.1344 104.338 23.2266C104.338 24.4028 103.884 25.3354 102.977 26.0244C102.069 26.7133 100.935 27.0578 99.574 27.0578C98.5658 27.0578 97.6836 26.9149 96.9274 26.6293C96.1713 26.3268 95.4823 25.9067 94.8606 25.369L95.6672 24.4364C96.2553 24.9069 96.8518 25.2598 97.4567 25.4951C98.0785 25.7135 98.7758 25.8227 99.5488 25.8227C100.523 25.8227 101.305 25.6043 101.893 25.1674C102.498 24.7137 102.8 24.092 102.8 23.3022C102.8 22.7645 102.699 22.3276 102.498 21.9915C102.296 21.6555 101.952 21.3698 101.464 21.1346C100.977 20.8825 100.263 20.6305 99.3219 20.3784C97.9272 20.0087 96.919 19.5466 96.2973 18.9921C95.6924 18.4376 95.3899 17.6982 95.3899 16.7741C95.3899 16.1187 95.5831 15.5306 95.9696 15.0097C96.3561 14.472 96.877 14.0603 97.5323 13.7746C98.2045 13.4722 98.9522 13.3209 99.7756 13.3209Z" fill="white"/>
<path d="M116.691 23.8567C116.691 24.5457 116.775 25.0414 116.943 25.3438C117.128 25.6463 117.413 25.8731 117.8 26.0244L117.472 27.0578C116.867 26.9402 116.397 26.7133 116.061 26.3772C115.741 26.0412 115.531 25.5287 115.431 24.8397C114.523 26.3184 113.154 27.0578 111.322 27.0578C110.062 27.0578 109.062 26.7049 108.323 25.9992C107.6 25.2766 107.239 24.3188 107.239 23.1258C107.239 21.7647 107.718 20.7145 108.676 19.9751C109.65 19.2358 110.994 18.8661 112.708 18.8661H115.229V17.5806C115.229 16.522 114.994 15.7574 114.523 15.2869C114.053 14.7996 113.271 14.556 112.179 14.556C111.171 14.556 109.978 14.808 108.6 15.3122L108.222 14.2031C109.701 13.615 111.087 13.3209 112.381 13.3209C115.254 13.3209 116.691 14.7156 116.691 17.505V23.8567ZM111.574 25.8731C113.154 25.8731 114.372 25.1002 115.229 23.5543V19.9247H112.935C111.591 19.9247 110.566 20.1852 109.86 20.7061C109.155 21.227 108.802 22.0083 108.802 23.0502C108.802 23.9575 109.045 24.6549 109.533 25.1422C110.02 25.6295 110.7 25.8731 111.574 25.8731Z" fill="white"/>
<path d="M128.339 13.3209C129.532 13.3209 130.439 13.6738 131.061 14.3796C131.7 15.0853 132.019 16.0767 132.019 17.3538V26.7805H130.557V17.5554C130.557 16.4968 130.347 15.7238 129.927 15.2365C129.507 14.7492 128.885 14.5056 128.062 14.5056C127.222 14.5056 126.474 14.7408 125.818 15.2113C125.18 15.665 124.567 16.3372 123.979 17.2277V26.7805H122.517V13.5982H123.777L123.928 15.8415C124.466 15.0517 125.104 14.4384 125.844 14.0015C126.583 13.5478 127.415 13.3209 128.339 13.3209Z" fill="white"/>
<path d="M147.142 8.22949V26.7805H145.881L145.705 24.7641C144.798 26.2932 143.479 27.0578 141.748 27.0578C140.219 27.0578 139.009 26.4529 138.118 25.243C137.244 24.0164 136.808 22.3528 136.808 20.2524C136.808 18.8913 137.009 17.6898 137.413 16.648C137.833 15.6062 138.429 14.7912 139.202 14.2031C139.992 13.615 140.916 13.3209 141.975 13.3209C143.47 13.3209 144.705 13.9175 145.68 15.1105V8.05305L147.142 8.22949ZM141.975 25.8479C142.815 25.8479 143.521 25.6463 144.092 25.243C144.68 24.8397 145.209 24.2264 145.68 23.403V16.522C144.739 15.1945 143.588 14.5308 142.227 14.5308C141.034 14.5308 140.084 15.0265 139.379 16.0179C138.69 17.0093 138.354 18.4124 138.37 20.2272C138.37 22.0419 138.69 23.4366 139.328 24.4112C139.967 25.369 140.849 25.8479 141.975 25.8479Z" fill="white"/>
<path d="M158.105 13.3209C158.626 13.3209 159.063 13.3714 159.416 13.4722L159.138 14.8585C158.769 14.7576 158.382 14.7072 157.979 14.7072C157.088 14.7072 156.366 15.0349 155.811 15.6902C155.274 16.3288 154.82 17.337 154.45 18.7149V26.7805H152.988V13.5982H154.249L154.375 16.5472C154.727 15.455 155.206 14.6484 155.811 14.1275C156.433 13.5898 157.198 13.3209 158.105 13.3209Z" fill="white"/>
<path d="M166.669 13.3209C168.417 13.3209 169.778 13.9259 170.752 15.1357C171.744 16.3288 172.239 18.0007 172.239 20.1516C172.239 22.2856 171.735 23.9743 170.727 25.2178C169.736 26.4445 168.375 27.0578 166.644 27.0578C164.896 27.0578 163.527 26.4529 162.535 25.243C161.561 24.0164 161.073 22.336 161.073 20.202C161.073 18.8073 161.3 17.589 161.754 16.5472C162.208 15.5054 162.855 14.7072 163.695 14.1527C164.535 13.5982 165.526 13.3209 166.669 13.3209ZM166.669 14.556C165.392 14.556 164.401 15.0349 163.695 15.9927C162.989 16.9505 162.636 18.3536 162.636 20.202C162.636 22.0335 162.981 23.4282 163.67 24.386C164.375 25.3438 165.367 25.8227 166.644 25.8227C167.921 25.8227 168.912 25.3438 169.618 24.386C170.341 23.4282 170.702 22.0167 170.702 20.1516C170.702 18.32 170.349 16.9337 169.643 15.9927C168.954 15.0349 167.963 14.556 166.669 14.556Z" fill="white"/>
<path d="M7.95857 13.8313V26.7805H6.82434V13.8313H7.95857Z" fill="white"/>
<path d="M16.4318 16.6858C17.3266 16.6858 18.0071 16.9505 18.4734 17.4798C18.9523 18.0091 19.1918 18.7527 19.1918 19.7105V26.7805H18.0953V19.8617C18.0953 19.0677 17.9378 18.488 17.6228 18.1225C17.3077 17.7571 16.8414 17.5743 16.2239 17.5743C15.5937 17.5743 15.0329 17.7508 14.5414 18.1036C14.0625 18.4439 13.6025 18.948 13.1614 19.6159V26.7805H12.065V16.8938H13.0102L13.1236 18.5762C13.5269 17.9839 14.0058 17.5239 14.5603 17.1962C15.1148 16.856 15.7387 16.6858 16.4318 16.6858Z" fill="white"/>
<path d="M30.4582 17.1017C29.8533 17.2656 28.9396 17.3601 27.7171 17.3853C28.8388 17.9146 29.3996 18.8094 29.3996 20.0696C29.3996 21.04 29.0782 21.8277 28.4355 22.4326C27.7928 23.0249 26.9232 23.3211 25.8267 23.3211C25.3352 23.3211 24.9068 23.2581 24.5413 23.1321C24.3018 23.2707 24.1128 23.4408 23.9742 23.6425C23.8481 23.8315 23.7851 24.0395 23.7851 24.2663C23.7851 24.9468 24.3081 25.2871 25.3542 25.2871H26.961C27.9314 25.2871 28.7001 25.5266 29.2673 26.0055C29.847 26.4718 30.1368 27.0767 30.1368 27.8202C30.1368 28.7276 29.7777 29.4271 29.0593 29.9186C28.341 30.4101 27.2697 30.6558 25.8457 30.6558C24.3711 30.6558 23.3125 30.429 22.6698 29.9753C22.0397 29.5342 21.7246 28.8158 21.7246 27.8202H22.7454C22.758 28.2991 22.8588 28.6772 23.0479 28.9545C23.2369 29.2317 23.552 29.4334 23.9931 29.5594C24.4342 29.6854 25.0517 29.7484 25.8457 29.7484C26.9547 29.7484 27.7612 29.5846 28.2654 29.2569C28.7695 28.9419 29.0215 28.4819 29.0215 27.8769C29.0215 27.3476 28.8262 26.9444 28.4355 26.6671C28.0448 26.3772 27.4966 26.2323 26.7908 26.2323H25.184C24.4027 26.2323 23.7977 26.0685 23.3692 25.7408C22.9534 25.4131 22.7454 24.9973 22.7454 24.4931C22.7454 24.1655 22.8399 23.8567 23.029 23.5669C23.218 23.277 23.4827 23.0249 23.8229 22.8107C23.2558 22.5208 22.8336 22.1491 22.5564 21.6954C22.2917 21.2417 22.1594 20.6872 22.1594 20.0318C22.1594 19.0362 22.4934 18.2297 23.1613 17.6121C23.8292 16.9946 24.7051 16.6858 25.7889 16.6858C26.9862 16.6984 27.8558 16.6543 28.3977 16.5535C28.9522 16.4527 29.5256 16.2826 30.1179 16.0431L30.4582 17.1017ZM25.7889 17.5365C24.9698 17.5365 24.3459 17.7634 23.9175 18.2171C23.5016 18.6707 23.2936 19.2757 23.2936 20.0318C23.2936 20.8132 23.5142 21.4244 23.9553 21.8655C24.409 22.3066 25.0202 22.5271 25.7889 22.5271C26.5955 22.5271 27.213 22.3129 27.6415 21.8844C28.07 21.4433 28.2843 20.8321 28.2843 20.0507C28.2843 19.2568 28.07 18.6392 27.6415 18.1981C27.2256 17.7571 26.6081 17.5365 25.7889 17.5365Z" fill="white"/>
<path d="M32.5552 25.1926C32.8199 25.1926 33.0341 25.2808 33.1979 25.4572C33.3744 25.6211 33.4626 25.829 33.4626 26.0811C33.4626 26.3457 33.3744 26.5663 33.1979 26.7427C33.0341 26.9065 32.8199 26.9885 32.5552 26.9885C32.3032 26.9885 32.0889 26.9002 31.9125 26.7238C31.736 26.5474 31.6478 26.3331 31.6478 26.0811C31.6478 25.829 31.736 25.6211 31.9125 25.4572C32.0889 25.2808 32.3032 25.1926 32.5552 25.1926Z" fill="white"/>
<path d="M185.951 26.7805V9.31332H196.361L195.933 12.2623H190.085V16.9001H195.177V19.8491H190.085V26.7805H185.951Z" fill="white"/>
<path d="M208.942 19.8239C208.942 20.3784 208.917 20.8573 208.867 21.2606H200.574C200.709 22.3864 201.028 23.1762 201.532 23.6299C202.036 24.0836 202.733 24.3104 203.624 24.3104C204.162 24.3104 204.683 24.218 205.187 24.0332C205.691 23.8315 206.237 23.529 206.825 23.1258L208.463 25.3438C206.901 26.5873 205.162 27.209 203.246 27.209C201.078 27.209 199.415 26.5705 198.255 25.2934C197.096 24.0163 196.516 22.3024 196.516 20.1516C196.516 18.7905 196.76 17.5722 197.247 16.4968C197.734 15.4046 198.449 14.5476 199.39 13.9259C200.331 13.2873 201.456 12.9681 202.767 12.9681C204.699 12.9681 206.212 13.573 207.304 14.7828C208.396 15.9927 208.942 17.673 208.942 19.8239ZM205.035 18.6897C205.002 16.6396 204.279 15.6146 202.868 15.6146C202.179 15.6146 201.641 15.8667 201.255 16.3708C200.885 16.8749 200.658 17.7066 200.574 18.8661H205.035V18.6897Z" fill="white"/>
<path d="M218.439 13.0185C218.926 13.0185 219.371 13.0773 219.774 13.1949L219.144 17.0513C218.64 16.9337 218.237 16.8749 217.934 16.8749C217.145 16.8749 216.54 17.1521 216.12 17.7066C215.716 18.2444 215.397 19.0593 215.162 20.1516V26.7805H211.179V13.3966H214.658L214.985 15.9927C215.288 15.0685 215.742 14.346 216.347 13.825C216.968 13.2873 217.666 13.0185 218.439 13.0185Z" fill="white"/>
<path d="M228.555 13.0185C229.042 13.0185 229.488 13.0773 229.891 13.1949L229.261 17.0513C228.757 16.9337 228.353 16.8749 228.051 16.8749C227.261 16.8749 226.656 17.1521 226.236 17.7066C225.833 18.2444 225.514 19.0593 225.278 20.1516V26.7805H221.296V13.3966H224.774L225.102 15.9927C225.404 15.0685 225.858 14.346 226.463 13.825C227.085 13.2873 227.782 13.0185 228.555 13.0185Z" fill="white"/>
<path d="M236.447 12.9681C238.497 12.9681 240.101 13.5982 241.261 14.8585C242.42 16.1019 243 17.8495 243 20.1011C243 21.5294 242.731 22.7813 242.193 23.8567C241.673 24.9153 240.916 25.7387 239.925 26.3268C238.95 26.9149 237.791 27.209 236.447 27.209C234.413 27.209 232.809 26.5873 231.632 25.3438C230.473 24.0836 229.893 22.3276 229.893 20.0759C229.893 18.6476 230.154 17.4042 230.675 16.3456C231.212 15.2701 231.969 14.4384 232.943 13.8503C233.935 13.2621 235.102 12.9681 236.447 12.9681ZM236.447 15.8919C235.64 15.8919 235.035 16.2363 234.632 16.9253C234.229 17.5974 234.027 18.6476 234.027 20.0759C234.027 21.5378 234.22 22.6049 234.607 23.277C235.01 23.9491 235.623 24.2852 236.447 24.2852C237.253 24.2852 237.858 23.9491 238.261 23.277C238.665 22.5881 238.866 21.5294 238.866 20.1011C238.866 18.6392 238.665 17.5722 238.261 16.9001C237.875 16.2279 237.27 15.8919 236.447 15.8919Z" fill="white"/>
</svg>
